<svg role="img" viewBox="0 0 24 24" xmlns="http://www.w3.org/2000/svg">
  <path d="M12 2.163c3.204 0 3.584.012 4.85.07 1.366.062 2.633.332 3.608 1.308.975.975 1.245 2.242 1.308 3.608.058 1.266.069 1.646.069 4.85s-.011 3.584-.069 4.85c-.063 1.366-.333 2.633-1.308 3.608-.975.975-2.242 1.245-3.608 1.308-1.266.058-1.646.069-4.85.069s-3.584-.011-4.85-.069c-1.366-.063-2.633-.333-3.608-1.308-.975-.975-1.245-2.242-1.308-3.608C2.175 15.584 2.163 15.204 2.163 12s.012-3.584.07-4.85c.062-1.366.332-2.633 1.308-3.608.975-.975 2.242-1.245 3.608-1.308C8.416 2.175 8.796 2.163 12 2.163zm0 1.622c-3.163 0-3.532.012-4.777.069-1.066.049-1.64.228-2.022.385-.51.198-.875.437-1.26.822-.385.385-.624.75-.822 1.26-.157.382-.336.956-.385 2.022-.057 1.245-.069 1.614-.069 4.777s.012 3.532.069 4.777c.049 1.066.228 1.64.385 2.022.198.51.437.875.822 1.26.385.385.75.624 1.26.822.382.157.956.336 2.022.385 1.245.057 1.614.069 4.777.069s3.532-.012 4.777-.069c1.066-.049 1.64-.228 2.022-.385.51-.198.875-.437 1.26-.822.385-.385.624-.75.822-1.26.157-.382.336-.956.385-2.022.057-1.245.069-1.614.069-4.777s-.012-3.532-.069-4.777c-.049-1.066-.228-1.64-.385-2.022-.198-.51-.437-.875-.822-1.26-.385-.385-.75-.624-1.26-.822-.382-.157-.956-.336-2.022-.385-1.245-.057-1.614-.069-4.777-.069zm0 3.905a5.932 5.932 0 1 1 0 11.863 5.932 5.932 0 0 1 0-11.863zm0 9.77a3.838 3.838 0 1 0 0-7.676 3.838 3.838 0 0 0 0 7.676zm7.842-10.985a1.386 1.386 0 1 1-2.772 0 1.386 1.386 0 0 1 2.772 0z"/>
</svg>
